<svg xmlns="http://www.w3.org/2000/svg" width="14" height="8.937" viewBox="0 0 14 8.937">
  <defs>
    <style>
      .cls-1 {
        fill: #666;
        fill-rule: evenodd;
      }
    </style>
  </defs>
  <path id="FForward_Icon" data-name="FForward Icon" class="cls-1" d="M121.411,387.179a0.865,0.865,0,0,1,.858-0.036l3.981,2.042V387.94a0.9,0.9,0,0,1,.411-0.761,0.865,0.865,0,0,1,.858-0.036l7,3.582a0.9,0.9,0,0,1,0,1.595l-7,3.581a0.881,0.881,0,0,1-.394.1,0.871,0.871,0,0,1-.464-0.135,0.9,0.9,0,0,1-.411-0.761v-1.235l-3.981,2.032a0.881,0.881,0,0,1-.394.1,0.871,0.871,0,0,1-.464-0.135A0.9,0.9,0,0,1,121,395.1V387.94A0.9,0.9,0,0,1,121.411,387.179Z" transform="translate(-121 -387.063)"/>
</svg>
