<svg xmlns="http://www.w3.org/2000/svg" width="14" height="8.937" viewBox="0 0 14 8.937">
  <defs>
    <style>
      .cls-1 {
        fill: #666;
        fill-rule: evenodd;
      }
    </style>
  </defs>
  <path id="Rewind_Back_Icon" data-name="Rewind/Back Icon" class="cls-1" d="M68.589,387.179a0.865,0.865,0,0,0-.858-0.036l-3.981,2.042V387.94a0.9,0.9,0,0,0-.411-0.761,0.865,0.865,0,0,0-.858-0.036l-7,3.582a0.9,0.9,0,0,0,0,1.595l7,3.581a0.882,0.882,0,0,0,.394.1,0.871,0.871,0,0,0,.464-0.135,0.9,0.9,0,0,0,.411-0.761v-1.235l3.981,2.032a0.881,0.881,0,0,0,.394.1,0.871,0.871,0,0,0,.464-0.135A0.9,0.9,0,0,0,69,395.1V387.94A0.9,0.9,0,0,0,68.589,387.179Z" transform="translate(-55 -387.063)"/>
</svg>
