<svg xmlns="http://www.w3.org/2000/svg" width="17" height="14" viewBox="0 0 17 14">
  <defs>
    <style>
      .cls-1 {
        fill: #666;
        fill-rule: evenodd;
      }
    </style>
  </defs>
  <path id="Shuffle_Icon" data-name="Shuffle Icon" class="cls-1" d="M571.07,389.388c0.177-.243.406-0.555,0.61-0.828a0.582,0.582,0,0,0-.055-0.751,6.4,6.4,0,0,0-4.126-1.793,0.476,0.476,0,0,0-.5.484v0.953a0.539,0.539,0,0,0,.5.524,4.643,4.643,0,0,1,2.93,1.451A0.409,0.409,0,0,0,571.07,389.388Zm7.908-.089c0,0.636.35,0.884,0.782,0.557l3.869-2.355a0.539,0.539,0,0,0,0-1l-3.869-2.356c-0.432-.328-0.782-0.078-0.782.557V386c-2.915,0-4.612,1.64-5.989,3.41-0.28.361-1.1,1.48-1.238,1.67-1.179,1.578-2.324,2.731-4.252,2.9a0.535,0.535,0,0,0-.5.521v1a0.476,0.476,0,0,0,.5.485,7.239,7.239,0,0,0,5.491-3.235c0.28-.36,1.1-1.479,1.238-1.67,1.277-1.71,2.515-3.08,4.751-3.08v1.3Zm0.782,2.845c-0.432-.328-0.782-0.078-0.782.557V394a4.616,4.616,0,0,1-3.429-1.43,0.408,0.408,0,0,0-.641.042c-0.177.244-.406,0.555-0.61,0.828a0.582,0.582,0,0,0,.055.751A6.45,6.45,0,0,0,578.978,396v1.3c0,0.636.35,0.884,0.782,0.557l3.869-2.355a0.539,0.539,0,0,0,0-1Z" transform="translate(-567 -384)"/>
</svg>
